<svg width="91" height="47" viewBox="0 0 91 47" fill="none" xmlns="http://www.w3.org/2000/svg">
<path d="M52.4 6C52.5 5.7 52.7 5.5 53 5.3C53.4 5.1 53.7 5.10001 54 5.10001C54.2 5.10001 54.2 4.9 54.2 4.8H48.8C48.8 4.9 48.8 5.10001 48.9 5.10001C49.4 5.10001 49.7 5.1 50.1 5.3C50.6 5.7 50.8 6.3 50.5 7L46.3 17.4C46.2 17.5 46.1 17.6 46 17.4L41.4 6.2C41.2 5.5 42.1 4.89999 42.5 4.89999C42.7 4.89999 42.8 4.89999 43 4.89999C43.2 4.89999 43.2 4.60001 43.2 4.60001H36.1C36.1 4.70001 36.1 4.89999 36.2 4.89999C37 4.89999 37.7 5.4 38.2 6C40.8 11.5 43 17.2 45.6 22.6L52.4 6Z" fill="#C49757"/>
<path d="M45.2 0L46.4 1H48.1V1.5H51.1L51.3 1L51.7 1.5L51 3.5H45.2V3H50.6L50.9 2H47.7V1.5H46.2L45.3 0.699997V0H45.2ZM39.2 1L39.4 1.5H42.4V1H44.1L45.2 0V0.699997L44.3 1.5H42.8V2H39.5L39.9 3H45.2V3.5H39.5L38.8 1.5L39.2 1Z" fill="#C49757"/>
<path d="M8.5 46.7L2.39999 31.8C2.19999 31.4 2 31 1.7 30.7C1.4 30.4 0.800006 30 0.100006 30V29.8H6.5V30.1C5.9 30.1 5.5 30.3 5.2 30.3C4.9 30.4 4.7 30.7 4.7 31.1C4.7 31.4 4.9 31.8 5 32.2L9 41.7L12.9 32.4C13 32 13.1 31.7 13.1 31.4C13.1 30.7 12.8 30.1 11.6 30.1V29.8H16.6V30.1C16.1 30.1 15.5 30.1 15.2 30.4C14.9 30.6 14.6 31.4 14.3 32.1L8.5 46.8V46.7Z" fill="#C49757"/>
<path d="M17.7 33.4L18.2 32.2H18.4L23.7 44.4C23.9 44.9 24.2 45.3 24.3 45.6C24.5 45.9 25.2 46 25.7 46.1V46.5H20.1V46.2C20.2 46.2 20.3 46.2 20.4 46.2C21.1 46.1 21.4 45.8 21.4 45.3C21.4 45.1 21.3 44.8 21.2 44.5L20.1 41.8H17.6V40.8H19.6L17.7 36L17.6 36.2V33.4H17.7ZM13.2 44L17.7 33.4V36.1L15.7 40.8H17.7V41.8H15.4L14.2 44.5C14.2 44.6 14 44.8 14 45.2C14 45.5 14.1 45.9 14.4 46C14.7 46.1 15 46.2 15.5 46.2V46.5H11.4V46.2C11.8 46.2 12.1 45.9 12.4 45.7C12.5 45.3 12.8 44.8 13.2 44Z" fill="#C49757"/>
<path d="M26.1 34.6C26.1 34.1 26.1 33.7 26 33.4C25.9 33.1 25.7 32.9 25.5 32.8C25.3 32.7 24.8 32.6 24.3 32.6V32.3H29.8V32.6C29.2 32.6 28.9 32.7 28.6 32.9C28.4 33.1 28.2 33.7 28.2 34.4V44.7C28.2 45 28.3 45.2 28.5 45.3C28.9 45.5 29.1 45.5 29.5 45.5H30.3C30.8 45.5 31.4 45.5 31.8 45.5C32.1 45.5 32.5 45.4 32.9 45.2C33.3 45 33.6 44.7 33.9 44.3C34.2 43.9 34.5 43.4 34.7 42.7H35L34.2 46.5H24.5V46.1C25 46.1 25.5 45.9 25.7 45.7C26 45.5 26.1 45.1 26.1 44.4V34.6Z" fill="#C49757"/>
<path d="M36 43.3V34.4C36 34 36 33.7 35.9 33.5C35.8 33.3 35.6 33.1 35.4 33C35.1 32.9 34.7 32.7 34.2 32.6V32.3H38.2L42.7 42.5L47 32.3H50.9V32.7C50.4 32.8 50 32.8 49.8 32.9C49.6 33 49.5 33.1 49.3 33.4C49.2 33.7 49.1 34.1 49.1 34.7V43.8C49.1 44.5 49.1 45.1 49.2 45.4C49.3 45.7 49.4 45.9 49.7 46C49.9 46.1 50.3 46.2 50.8 46.2V46.5H45.3V46.2C45.8 46.2 46.2 46 46.4 45.9C46.6 45.8 46.8 45.5 46.9 45.2C47 44.9 47 44.3 47 43.7V35L42.1 46.5H41.8L37 35V43.3C37 44.1 37 44.8 37.1 45.2C37.2 45.6 37.4 45.8 37.7 46C37.9 46.1 38.3 46.2 38.8 46.2V46.5H34.1V46.2C35 46.2 35.5 45.8 35.8 45.3C35.9 44.9 36 44.2 36 43.3Z" fill="#C49757"/>
<path d="M66.9 43.1V33.8C66.5 33.4 66.2 33 66 32.9C65.7 32.7 65.2 32.5 64.5 32.5V32.2H68.5L76.5 42.5V35.3C76.5 34.1 76.4 33.2 76 32.9C75.7 32.7 75.1 32.6 74.5 32.6V32.2H79.5V32.7C79 32.7 78.5 32.7 78.3 32.8C78 32.9 77.8 33.1 77.7 33.5C77.6 33.9 77.6 34.5 77.6 35.2V46.7H77.4L68 35V34.9V43.1C68 43.7 68 44.2 68 44.6C68 45 68.1 45.4 68.2 45.6C68.3 45.8 68.6 45.9 68.9 46C69.1 46 69.5 46 69.9 46.1V46.5H65.1V46.1C65.6 46.1 65.8 46.1 66 46C66.2 46 66.4 45.8 66.6 45.7C66.8 45.5 66.8 45.1 66.9 44.7C66.9 44.3 66.9 43.8 66.9 43.1Z" fill="#C49757"/>
<path d="M78.9 35.4V32.1H90.1V35.3H89.9C89.8 34.6 89.6 34.4 89.3 33.8C89.1 33.5 88.8 33.3 88.5 33.2C88.2 33.1 87.6 33.1 87.1 33.1H85.6V44.1C85.6 44.5 85.6 44.9 85.7 45.2C85.8 45.5 86 45.8 86.3 45.8C86.6 45.9 87 45.9 87.4 45.9V46.2H81.6V46C82.3 46 82.8 45.9 83 45.7C83.3 45.5 83.4 44.9 83.4 44.3V33.1H82.1C81.5 33.1 81 33.1 80.6 33.2C80.3 33.3 79.7 33.4 79.5 33.9C79.3 34.3 79.2 34.5 79.1 35.3L78.9 35.4Z" fill="#C49757"/>
<path d="M58 46.1C59.5 46.1 60.7 45.5 61.6 44.3C62.5 43.1 63 41.4 63 39.4C63 37.4 62.6 35.7 61.7 34.6C60.8 33.4 59.5 32.7 58.1 32.7V32C60.3 32 62.1 32.7 63.5 34.1C64.9 35.5 65.6 37.3 65.6 39.5C65.6 41.7 64.9 43.6 63.5 44.9C62.1 46.3 60.3 46.9 58.1 47V46.1H58ZM53 39.4C53 41.5 53.4 43.1 54.3 44.3C55.2 45.5 56.4 46.1 57.9 46.1C57.9 46.1 57.9 46.1 58 46.1V46.9C58 46.9 58 46.9 57.9 46.9C55.7 46.9 53.9 46.2 52.5 44.9C51.1 43.5 50.4 41.7 50.4 39.4C50.4 37.2 51.1 35.4 52.4 34C53.8 32.6 55.6 31.9 57.8 31.9C57.8 31.9 57.8 31.9 57.9 31.9V32.6C57.9 32.6 57.9 32.6 57.8 32.6C56.3 32.6 55.1 33.2 54.2 34.4C53.4 35.7 53 37.4 53 39.4Z" fill="#C49757"/>
</svg>
